<svg id="Layer_1" data-name="Layer 1" xmlns="http://www.w3.org/2000/svg" viewBox="0 0 1367 774.61"><title>Untitled-1</title><rect x="0.5" y="0.5" width="1366" height="768" style="fill:#373a3c"/><rect x="1025" y="384.5" width="341.5" height="384" style="fill:none;stroke:#6b6f71;stroke-miterlimit:10"/><rect x="1025" y="384.5" width="256.12" height="384" style="fill:none;stroke:#6b6f71;stroke-miterlimit:10"/><rect x="1025" y="384.5" width="170.75" height="384" style="fill:none;stroke:#6b6f71;stroke-miterlimit:10"/><rect x="1025" y="384.5" width="85.37" height="384" style="fill:none;stroke:#6b6f71;stroke-miterlimit:10"/><rect x="1025" y="384.5" height="384" style="fill:none;stroke:#6b6f71;stroke-miterlimit:10"/><rect x="1025" y="384.5" width="341.5" height="384" style="fill:none;stroke:#6b6f71;stroke-miterlimit:10"/><rect x="1025" y="480.5" width="341.5" height="288" style="fill:none;stroke:#6b6f71;stroke-miterlimit:10"/><rect x="1025" y="576.5" width="341.5" height="192" style="fill:none;stroke:#6b6f71;stroke-miterlimit:10"/><rect x="1025" y="672.5" width="341.5" height="96" style="fill:none;stroke:#6b6f71;stroke-miterlimit:10"/><polygon points="1366.5 768.5 1366.5 768.5 1025 768.5 1025 768.5 1366.5 768.5" style="fill:none;stroke:#6b6f71;stroke-miterlimit:10"/><rect x="683.5" y="384.5" width="341.5" height="384" style="fill:none;stroke:#6b6f71;stroke-miterlimit:10"/><rect x="683.5" y="384.5" width="256.12" height="384" style="fill:none;stroke:#6b6f71;stroke-miterlimit:10"/><rect x="683.5" y="384.5" width="170.75" height="384" style="fill:none;stroke:#6b6f71;stroke-miterlimit:10"/><rect x="683.5" y="384.5" width="85.37" height="384" style="fill:none;stroke:#6b6f71;stroke-miterlimit:10"/><rect x="683.5" y="384.5" height="384" style="fill:none;stroke:#6b6f71;stroke-miterlimit:10"/><rect x="683.5" y="384.5" width="341.5" height="384" style="fill:none;stroke:#6b6f71;stroke-miterlimit:10"/><rect x="683.5" y="480.5" width="341.5" height="288" style="fill:none;stroke:#6b6f71;stroke-miterlimit:10"/><rect x="683.5" y="576.5" width="341.5" height="192" style="fill:none;stroke:#6b6f71;stroke-miterlimit:10"/><rect x="683.5" y="672.5" width="341.5" height="96" style="fill:none;stroke:#6b6f71;stroke-miterlimit:10"/><polygon points="1025 768.5 1025 768.5 683.5 768.5 683.5 768.5 1025 768.5" style="fill:none;stroke:#6b6f71;stroke-miterlimit:10"/><rect x="342" y="384.5" width="341.5" height="384" style="fill:none;stroke:#6b6f71;stroke-miterlimit:10"/><rect x="342" y="384.5" width="256.12" height="384" style="fill:none;stroke:#6b6f71;stroke-miterlimit:10"/><rect x="342" y="384.5" width="170.75" height="384" style="fill:none;stroke:#6b6f71;stroke-miterlimit:10"/><rect x="342" y="384.5" width="85.37" height="384" style="fill:none;stroke:#6b6f71;stroke-miterlimit:10"/><rect x="342" y="384.5" height="384" style="fill:none;stroke:#6b6f71;stroke-miterlimit:10"/><rect x="342" y="384.5" width="341.5" height="384" style="fill:none;stroke:#6b6f71;stroke-miterlimit:10"/><rect x="342" y="480.5" width="341.5" height="288" style="fill:none;stroke:#6b6f71;stroke-miterlimit:10"/><rect x="342" y="576.5" width="341.5" height="192" style="fill:none;stroke:#6b6f71;stroke-miterlimit:10"/><rect x="342" y="672.5" width="341.5" height="96" style="fill:none;stroke:#6b6f71;stroke-miterlimit:10"/><polygon points="683.5 768.5 683.5 768.5 342 768.5 342 768.5 683.5 768.5" style="fill:none;stroke:#6b6f71;stroke-miterlimit:10"/><rect x="0.5" y="384.5" width="341.5" height="384" style="fill:none;stroke:#6b6f71;stroke-miterlimit:10"/><rect x="0.5" y="384.5" width="256.12" height="384" style="fill:none;stroke:#6b6f71;stroke-miterlimit:10"/><rect x="0.5" y="384.5" width="170.75" height="384" style="fill:none;stroke:#6b6f71;stroke-miterlimit:10"/><rect x="0.5" y="384.5" width="85.37" height="384" style="fill:none;stroke:#6b6f71;stroke-miterlimit:10"/><rect x="0.5" y="384.5" height="384" style="fill:none;stroke:#6b6f71;stroke-miterlimit:10"/><rect x="0.5" y="384.5" width="341.5" height="384" style="fill:none;stroke:#6b6f71;stroke-miterlimit:10"/><rect x="0.5" y="480.5" width="341.5" height="288" style="fill:none;stroke:#6b6f71;stroke-miterlimit:10"/><rect x="0.5" y="576.5" width="341.5" height="192" style="fill:none;stroke:#6b6f71;stroke-miterlimit:10"/><rect x="0.5" y="672.5" width="341.5" height="96" style="fill:none;stroke:#6b6f71;stroke-miterlimit:10"/><polygon points="342 768.5 342 768.5 0.5 768.5 0.5 768.5 342 768.5" style="fill:none;stroke:#6b6f71;stroke-miterlimit:10"/><rect x="1025" y="0.5" width="341.5" height="384" style="fill:none;stroke:#6b6f71;stroke-miterlimit:10"/><rect x="1025" y="0.5" width="256.12" height="384" style="fill:none;stroke:#6b6f71;stroke-miterlimit:10"/><rect x="1025" y="0.5" width="170.75" height="384" style="fill:none;stroke:#6b6f71;stroke-miterlimit:10"/><rect x="1025" y="0.5" width="85.37" height="384" style="fill:none;stroke:#6b6f71;stroke-miterlimit:10"/><rect x="1025" y="0.5" height="384" style="fill:none;stroke:#6b6f71;stroke-miterlimit:10"/><rect x="1025" y="0.5" width="341.5" height="384" style="fill:none;stroke:#6b6f71;stroke-miterlimit:10"/><rect x="1025" y="96.5" width="341.5" height="288" style="fill:none;stroke:#6b6f71;stroke-miterlimit:10"/><rect x="1025" y="192.5" width="341.5" height="192" style="fill:none;stroke:#6b6f71;stroke-miterlimit:10"/><rect x="1025" y="288.5" width="341.5" height="96" style="fill:none;stroke:#6b6f71;stroke-miterlimit:10"/><polygon points="1366.5 384.5 1366.5 384.5 1025 384.5 1025 384.5 1366.5 384.5" style="fill:none;stroke:#6b6f71;stroke-miterlimit:10"/><rect x="683.5" y="0.5" width="341.5" height="384" style="fill:none;stroke:#6b6f71;stroke-miterlimit:10"/><rect x="683.5" y="0.5" width="256.12" height="384" style="fill:none;stroke:#6b6f71;stroke-miterlimit:10"/><rect x="683.5" y="0.5" width="170.75" height="384" style="fill:none;stroke:#6b6f71;stroke-miterlimit:10"/><rect x="683.5" y="0.5" width="85.37" height="384" style="fill:none;stroke:#6b6f71;stroke-miterlimit:10"/><rect x="683.5" y="0.5" height="384" style="fill:none;stroke:#6b6f71;stroke-miterlimit:10"/><rect x="683.5" y="0.5" width="341.5" height="384" style="fill:none;stroke:#6b6f71;stroke-miterlimit:10"/><rect x="683.5" y="96.5" width="341.5" height="288" style="fill:none;stroke:#6b6f71;stroke-miterlimit:10"/><rect x="683.5" y="192.5" width="341.5" height="192" style="fill:none;stroke:#6b6f71;stroke-miterlimit:10"/><rect x="683.5" y="288.5" width="341.5" height="96" style="fill:none;stroke:#6b6f71;stroke-miterlimit:10"/><polygon points="1025 384.5 1025 384.5 683.5 384.5 683.5 384.5 1025 384.5" style="fill:none;stroke:#6b6f71;stroke-miterlimit:10"/><rect x="342" y="0.5" width="341.5" height="384" style="fill:none;stroke:#6b6f71;stroke-miterlimit:10"/><rect x="342" y="0.5" width="256.12" height="384" style="fill:none;stroke:#6b6f71;stroke-miterlimit:10"/><rect x="342" y="0.5" width="170.75" height="384" style="fill:none;stroke:#6b6f71;stroke-miterlimit:10"/><rect x="342" y="0.5" width="85.37" height="384" style="fill:none;stroke:#6b6f71;stroke-miterlimit:10"/><rect x="342" y="0.5" height="384" style="fill:none;stroke:#6b6f71;stroke-miterlimit:10"/><rect x="342" y="0.5" width="341.5" height="384" style="fill:none;stroke:#6b6f71;stroke-miterlimit:10"/><rect x="342" y="96.5" width="341.5" height="288" style="fill:none;stroke:#6b6f71;stroke-miterlimit:10"/><rect x="342" y="192.5" width="341.5" height="192" style="fill:none;stroke:#6b6f71;stroke-miterlimit:10"/><rect x="342" y="288.5" width="341.5" height="96" style="fill:none;stroke:#6b6f71;stroke-miterlimit:10"/><polygon points="683.5 384.5 683.5 384.5 342 384.5 342 384.5 683.5 384.5" style="fill:none;stroke:#6b6f71;stroke-miterlimit:10"/><rect x="0.5" y="0.5" width="341.5" height="384" style="fill:none;stroke:#6b6f71;stroke-miterlimit:10"/><rect x="0.5" y="0.5" width="256.12" height="384" style="fill:none;stroke:#6b6f71;stroke-miterlimit:10"/><rect x="0.5" y="0.5" width="170.75" height="384" style="fill:none;stroke:#6b6f71;stroke-miterlimit:10"/><rect x="0.5" y="0.5" width="85.37" height="384" style="fill:none;stroke:#6b6f71;stroke-miterlimit:10"/><rect x="0.5" y="0.5" height="384" style="fill:none;stroke:#6b6f71;stroke-miterlimit:10"/><rect x="0.5" y="0.5" width="341.5" height="384" style="fill:none;stroke:#6b6f71;stroke-miterlimit:10"/><rect x="0.5" y="96.5" width="341.5" height="288" style="fill:none;stroke:#6b6f71;stroke-miterlimit:10"/><rect x="0.5" y="192.5" width="341.5" height="192" style="fill:none;stroke:#6b6f71;stroke-miterlimit:10"/><rect x="0.5" y="288.5" width="341.5" height="96" style="fill:none;stroke:#6b6f71;stroke-miterlimit:10"/><polygon points="342 384.5 342 384.5 0.5 384.5 0.5 384.5 342 384.5" style="fill:none;stroke:#6b6f71;stroke-miterlimit:10"/><text transform="translate(958.4 655.45)" style="font-size:92.0145034790039px;fill:#f9ec23;font-family:Menlo-Bold, Menlo;font-weight:700;letter-spacing:0.4800003316605206em">A<tspan x="99.56" y="0" style="letter-spacing:0.45999456905897546em">A</tspan><tspan x="197.29" y="0" style="fill:#f8ed3f;letter-spacing:0.5000060942620657em">P</tspan><tspan x="298.69" y="0" style="letter-spacing:0.49999548112540704em">I</tspan></text><text transform="translate(951.5 751.6)" style="font-size:92.0145034790039px;fill:#fdf9d1;font-family:EurostileBold, Eurostile;font-weight:700;letter-spacing:0.4200042701292025em">D<tspan x="100.42" y="0" style="letter-spacing:0.4949966937591854em">AT</tspan><tspan x="298.58" y="0">A</tspan></text></svg>